<?xml version="1.0" encoding="utf-8"?>
<!-- Generator: Adobe Illustrator 25.4.1, SVG Export Plug-In . SVG Version: 6.00 Build 0)  -->
<svg version="1.0" id="Layer_1" xmlns="http://www.w3.org/2000/svg" xmlns:xlink="http://www.w3.org/1999/xlink" x="0px" y="0px"
	 viewBox="0 0 494 69" style="enable-background:new 0 0 494 69;" xml:space="preserve">
<style type="text/css">
	.st0{fill-rule:evenodd;clip-rule:evenodd;fill:#355C7D;}
	.st1{filter:url(#Adobe_OpacityMaskFilter);}
	.st2{fill-rule:evenodd;clip-rule:evenodd;fill:#FFFFFF;}
	.st3{mask:url(#mask-2_00000125591551823747886630000014024625455543687605_);fill-rule:evenodd;clip-rule:evenodd;fill:#355C7D;}
	.st4{filter:url(#Adobe_OpacityMaskFilter_00000026845234441001090600000010519644206109004729_);}
	.st5{mask:url(#mask-2_00000096774477964031703710000014743327600114511539_);fill-rule:evenodd;clip-rule:evenodd;fill:#355C7D;}
	.st6{filter:url(#Adobe_OpacityMaskFilter_00000112622599375169141040000003183573279892762272_);}
	.st7{mask:url(#mask-2_00000156580563970253800320000002722442626217977998_);fill-rule:evenodd;clip-rule:evenodd;fill:#355C7D;}
	.st8{filter:url(#Adobe_OpacityMaskFilter_00000168099156909363247320000006412578115743432368_);}
	.st9{mask:url(#mask-2_00000052825850113957497740000010707707945306084244_);fill-rule:evenodd;clip-rule:evenodd;fill:#355C7D;}
	.st10{filter:url(#Adobe_OpacityMaskFilter_00000055703307519240141260000006621758287248209556_);}
	.st11{mask:url(#mask-2_00000094593892873592113350000015848640899530047112_);fill-rule:evenodd;clip-rule:evenodd;fill:#355C7D;}
	.st12{filter:url(#Adobe_OpacityMaskFilter_00000170985426740835795010000017878774125859280302_);}
	.st13{mask:url(#mask-2_00000067203011714810803130000013073441052240851847_);fill-rule:evenodd;clip-rule:evenodd;fill:#355C7D;}
	.st14{filter:url(#Adobe_OpacityMaskFilter_00000047046358449184815510000008815533899327881145_);}
	.st15{mask:url(#mask-2_00000180363106562263151200000015218022873853774243_);fill-rule:evenodd;clip-rule:evenodd;fill:#355C7D;}
	.st16{filter:url(#Adobe_OpacityMaskFilter_00000049189769913797631270000016645288727359831180_);}
	.st17{mask:url(#mask-2_00000083074550877366884610000001727996414030544026_);fill-rule:evenodd;clip-rule:evenodd;fill:#355C7D;}
	.st18{filter:url(#Adobe_OpacityMaskFilter_00000080166826674797076130000011582926410268371585_);}
	.st19{mask:url(#mask-2_00000023258499532680353770000005822250591306528919_);fill-rule:evenodd;clip-rule:evenodd;fill:#355C7D;}
	.st20{filter:url(#Adobe_OpacityMaskFilter_00000152259425163399372870000013019260670677524914_);}
	.st21{mask:url(#mask-2_00000089536585973237929740000012437253482164134586_);fill-rule:evenodd;clip-rule:evenodd;fill:#695D79;}
	.st22{filter:url(#Adobe_OpacityMaskFilter_00000016769787971176954810000007581117037246654859_);}
	.st23{mask:url(#mask-2_00000119828462230397140420000015217121498284634038_);fill-rule:evenodd;clip-rule:evenodd;fill:#B37083;}
	.st24{filter:url(#Adobe_OpacityMaskFilter_00000155865715399347513760000007783710258831122860_);}
	.st25{mask:url(#mask-2_00000034806164638178892020000005937692434582053007_);fill-rule:evenodd;clip-rule:evenodd;fill:#E37981;}
	.st26{filter:url(#Adobe_OpacityMaskFilter_00000038378367743605755420000014602566715569971126_);}
	.st27{mask:url(#mask-2_00000176040043861046551710000017439333277417531556_);fill-rule:evenodd;clip-rule:evenodd;fill:#EBB399;}
</style>
<g id="Page-1">
	<g id="Meditation-Webpage---Index" transform="translate(-553.000000, -79.000000)">
		<g id="Group-21" transform="translate(553.000000, 79.000000)">
			<polygon id="Fill-1" class="st0" points="53.2629,2 33.45692,39.55357 13.83403,2 0,2 0,68 12.89704,68 12.89704,24.30714 
				29.99437,56.84643 37.00024,56.84643 54.10834,24.30714 54.10834,68 67,68 67,2 			"/>
			<g id="Group-20">
				<path id="Fill-2" class="st0" d="M114.927,39.53543c-0.31205-3.67004-1.66785-6.60393-4.06201-8.8124
					c-2.39417-2.2031-5.30483-3.31002-8.72661-3.31002c-1.6786,0-3.25499,0.29554-4.71301,0.88661
					c-1.4634,0.59108-2.76002,1.41321-3.87909,2.47177c-1.11906,1.05319-2.03907,2.33206-2.75463,3.8205
					c-0.71556,1.49381-1.13522,3.14345-1.25896,4.94354H114.927z M102.22984,68.99785c-3.92213,0-7.46764-0.6663-10.64194-2.00428
					c-3.17429-1.33261-5.88588-3.15419-8.12402-5.45401c-2.23814-2.29982-3.96517-4.97041-5.18108-8.01714
					c-1.21591-3.04672-1.81849-6.24928-1.81849-9.60766c0-3.4766,0.58643-6.75438,1.77007-9.83335
					c1.18363-3.07896,2.89452-5.78179,5.13805-8.11385c2.23814-2.32669,4.96049-4.18052,8.16707-5.55074
					c3.20657-1.36485,6.80051-2.04727,10.78181-2.04727c3.98132,0,7.54836,0.68242,10.69574,2.04727
					c3.14201,1.37022,5.81595,3.20793,8.02718,5.50238c2.20586,2.30519,3.88985,4.97578,5.04121,8.02251
					c1.15135,3.04672,1.72703,6.21704,1.72703,9.51094c0,0.80601-0.01614,1.58516-0.04842,2.33206
					c-0.03228,0.74153-0.1076,1.36485-0.23135,1.86457h-37.8117c0.18831,1.92905,0.651,3.6378,1.39884,5.12624
					c0.74784,1.49381,1.71089,2.76731,2.89452,3.82587s2.52328,1.8592,4.01359,2.42341
					c1.49568,0.55883,3.05054,0.83825,4.66998,0.83825c2.48563,0,4.83675-0.6072,7.048-1.81622
					c2.21124-1.21439,3.71768-2.81567,4.5247-4.80383l10.74416,2.98224c-1.80772,3.72915-4.69149,6.792-8.64052,9.18316
					C112.41985,67.80495,107.70684,68.99785,102.22984,68.99785L102.22984,68.99785z"/>
				<path id="Fill-4" class="st0" d="M158.99312,58.37139c1.18364,0,2.39417-0.20419,3.64236-0.60719
					c1.24281-0.40301,2.39417-0.97796,3.45406-1.72487c1.05989-0.7469,2.02293-1.61202,2.89452-2.61148
					c0.87158-0.98871,1.52258-2.07951,1.95837-3.26166V38.51125c-1.05989-2.73507-2.78154-5.00265-5.18108-6.80812
					c-2.39955-1.80009-4.90132-2.70283-7.51607-2.70283c-1.86691,0-3.59395,0.40301-5.18109,1.20902
					c-1.58714,0.81139-2.93756,1.91294-4.05663,3.31002c-1.12447,1.40246-1.99605,3.00374-2.62015,4.80383
					c-0.61871,1.80009-0.93076,3.67004-0.93076,5.59372c0,2.05264,0.33894,3.94946,1.0276,5.69044
					c0.68327,1.74099,1.63557,3.26166,2.8461,4.5674c1.21591,1.30574,2.64703,2.33206,4.29337,3.07897
					C155.27544,58.00062,157.06703,58.37139,158.99312,58.37139 M155.72737,69c-3.36259,0-6.46156-0.65018-9.29152-1.95592
					s-5.27255-3.10583-7.32777-5.41103c-2.05521-2.29445-3.65849-4.98653-4.80984-8.06549
					c-1.15135-3.07359-1.72704-6.38899-1.72704-9.93007s0.5434-6.83498,1.63557-9.88171
					c1.08679-3.04673,2.5986-5.72269,4.5247-8.02251c1.93147-2.29445,4.23418-4.09991,6.9135-5.40565
					c2.67392-1.30574,5.60072-1.95592,8.77502-1.95592c3.54552,0,6.76822,0.87049,9.66275,2.61148
					c2.89452,1.73561,5.1488,4.00857,6.76822,6.80274V0h12.50885v53.70726c0,1.30574,0.24748,2.24072,0.74785,2.79955
					c0.50035,0.55884,1.36655,0.87049,2.61475,0.93497V68.0704c-2.36726,0.42988-4.35793,0.65018-5.97734,0.65018
					c-2.3027-0.0591-4.08891-0.59107-5.3694-1.58515c-1.27509-0.99409-2.06598-2.39117-2.37802-4.19664l-0.27977-3.35301
					c-1.80772,3.10583-4.23418,5.45401-7.28471,7.03917C162.38261,68.21011,159.14914,69,155.72737,69"/>
				<g id="Clip-7">
				</g>
				<defs>
					<filter id="Adobe_OpacityMaskFilter" filterUnits="userSpaceOnUse" x="196.05804" y="0" width="12.51424" height="68.06503">
						<feColorMatrix  type="matrix" values="1 0 0 0 0  0 1 0 0 0  0 0 1 0 0  0 0 0 1 0"/>
					</filter>
				</defs>
				
					<mask maskUnits="userSpaceOnUse" x="196.05804" y="0" width="12.51424" height="68.06503" id="mask-2_00000125591551823747886630000014024625455543687605_">
					<g class="st1">
						<polygon id="path-1_00000095300634719913790640000000918114804095159995_" class="st2" points="0,69 494,69 494,0 0,0 						
							"/>
					</g>
				</mask>
				<path id="Fill-6" class="st3" d="M196.05804,68.06503h12.51424V19.20458h-12.51424V68.06503z M196.05804,12.40184h12.51424V0
					h-12.51424V12.40184z"/>
				<defs>
					
						<filter id="Adobe_OpacityMaskFilter_00000017474970529625443350000011312356390226916778_" filterUnits="userSpaceOnUse" x="216.13354" y="3.35785" width="32.95341" height="65.55026">
						<feColorMatrix  type="matrix" values="1 0 0 0 0  0 1 0 0 0  0 0 1 0 0  0 0 0 1 0"/>
					</filter>
				</defs>
				
					<mask maskUnits="userSpaceOnUse" x="216.13354" y="3.35785" width="32.95341" height="65.55026" id="mask-2_00000096774477964031703710000014743327600114511539_">
					<g style="filter:url(#Adobe_OpacityMaskFilter_00000017474970529625443350000011312356390226916778_);">
						<polygon id="path-1_00000002380366361816550230000014474133192385701270_" class="st2" points="0,69 494,69 494,0 0,0 						
							"/>
					</g>
				</mask>
				<path id="Fill-8" class="st5" d="M249.08696,65.54973c-1.6786,0.74691-3.74997,1.49381-6.20869,2.24072
					s-5.02505,1.11767-7.69899,1.11767c-1.74855,0-3.37874-0.22031-4.90671-0.65556
					c-1.52257-0.42987-2.86223-1.13379-4.01358-2.09563c-1.15135-0.96185-2.06598-2.2031-2.75464-3.72915
					c-0.68327-1.52068-1.02223-3.36913-1.02223-5.55074V28.8117h-6.34857v-9.60766h6.34857V3.35785h12.50885v15.8462h10.36217
					v9.60766h-10.36217v23.8687c0,1.74636,0.46269,2.9715,1.39883,3.68616c0.93077,0.71466,2.05522,1.07468,3.36259,1.07468
					s2.58247-0.22031,3.82529-0.65556c1.2482-0.43525,2.24353-0.80601,2.99136-1.11767L249.08696,65.54973z"/>
				<defs>
					
						<filter id="Adobe_OpacityMaskFilter_00000178923497674984906590000002121967108897175696_" filterUnits="userSpaceOnUse" x="252.06918" y="18.37062" width="48.64194" height="50.6283">
						<feColorMatrix  type="matrix" values="1 0 0 0 0  0 1 0 0 0  0 0 1 0 0  0 0 0 1 0"/>
					</filter>
				</defs>
				
					<mask maskUnits="userSpaceOnUse" x="252.06918" y="18.37062" width="48.64194" height="50.6283" id="mask-2_00000156580563970253800320000002722442626217977998_">
					<g style="filter:url(#Adobe_OpacityMaskFilter_00000178923497674984906590000002121967108897175696_);">
						<polygon id="path-1_00000036237131472149797000000005481744458230147258_" class="st2" points="0,69 494,69 494,0 0,0 						
							"/>
					</g>
				</mask>
				<path id="Fill-9" class="st7" d="M272.33081,59.86412c2.11978,0,4.12659-0.37614,6.02579-1.11767
					c1.8938-0.7469,3.37335-1.74099,4.43323-2.98762c1.36658-1.05319,2.05524-2.23534,2.05524-3.54108v-5.59372
					c-1.4957-0.55883-3.11511-1.0102-4.85828-1.3541c-1.74316-0.33852-3.42178-0.51585-5.0412-0.51585
					c-3.23886,0-5.88052,0.73616-7.93573,2.19235c-2.05521,1.46157-3.08282,3.31002-3.08282,5.55074
					c0,2.11175,0.81241,3.86886,2.43182,5.26595C267.9729,59.16558,269.96893,59.86412,272.33081,59.86412 M268.78531,68.99892
					c-2.36728,0-4.57312-0.38689-6.62836-1.16603c-2.05521-0.77377-3.83066-1.86457-5.32095-3.26166
					c-1.4957-1.39709-2.66318-3.03061-3.50249-4.89518c-0.84468-1.86457-1.26433-3.91722-1.26433-6.15256
					c0-2.29982,0.51649-4.42769,1.5441-6.38899c1.0276-1.95592,2.45874-3.61631,4.29337-4.98653s4.02972-2.43953,6.57993-3.21867
					c2.55557-0.77915,5.35861-1.16603,8.40378-1.16603c2.17896,0,4.30951,0.18807,6.397,0.55883
					c2.08749,0.37614,3.93289,0.90273,5.55771,1.58516v-2.79417c0-3.23479-0.92001-5.72268-2.76004-7.46367
					c-1.83463-1.73561-4.55698-2.60611-8.16705-2.60611c-2.60938,0-5.16495,0.46211-7.65594,1.39709
					c-2.48563,0.9296-5.0412,2.29982-7.65598,4.10529l-3.82527-7.93116c6.28401-4.15902,13.06837-6.24391,20.3531-6.24391
					c7.03186,0,12.49271,1.72487,16.38257,5.1746c3.88983,3.44973,5.83746,8.43626,5.83746,14.96495v15.19601
					c0,1.31111,0.24747,2.24071,0.74783,2.79955c0.49496,0.55883,1.36655,0.87049,2.60938,0.93497v10.62862
					c-1.17825,0.24718-2.28119,0.41912-3.30881,0.51047c-1.02759,0.09673-1.91531,0.13971-2.66318,0.13971
					c-2.36725-0.0591-4.16962-0.60182-5.41241-1.62814c-1.2482-1.02632-2.02832-2.41266-2.33499-4.15365l-0.27975-2.70282
					c-2.17899,2.86403-4.82602,5.03489-7.93573,6.5287C275.66113,68.25739,272.33081,68.99892,268.78531,68.99892"/>
				<defs>
					
						<filter id="Adobe_OpacityMaskFilter_00000117658412085186439200000007717184234450514089_" filterUnits="userSpaceOnUse" x="304.91891" y="3.35785" width="32.95343" height="65.55026">
						<feColorMatrix  type="matrix" values="1 0 0 0 0  0 1 0 0 0  0 0 1 0 0  0 0 0 1 0"/>
					</filter>
				</defs>
				
					<mask maskUnits="userSpaceOnUse" x="304.91891" y="3.35785" width="32.95343" height="65.55026" id="mask-2_00000052825850113957497740000010707707945306084244_">
					<g style="filter:url(#Adobe_OpacityMaskFilter_00000117658412085186439200000007717184234450514089_);">
						<polygon id="path-1_00000067952586513962013490000003140111084777176193_" class="st2" points="0,69 494,69 494,0 0,0 						
							"/>
					</g>
				</mask>
				<path id="Fill-10" class="st9" d="M337.87234,65.54973c-1.67859,0.74691-3.74997,1.49381-6.20868,2.24072
					c-2.45874,0.7469-5.02509,1.11767-7.69901,1.11767c-1.74854,0-3.37872-0.22031-4.90671-0.65556
					c-1.52258-0.42987-2.86224-1.13379-4.01358-2.09563c-1.15137-0.96185-2.06598-2.2031-2.75464-3.72915
					c-0.68329-1.52068-1.02222-3.36913-1.02222-5.55074V28.8117h-6.3486v-9.60766h6.3486V3.35785h12.50885v15.8462h10.36215v9.60766
					h-10.36215v23.8687c0,1.74636,0.46268,2.9715,1.39883,3.68616c0.93076,0.71466,2.05521,1.07468,3.36258,1.07468
					s2.58249-0.22031,3.82529-0.65556c1.2482-0.43525,2.24353-0.80601,2.99136-1.11767L337.87234,65.54973z"/>
				<defs>
					
						<filter id="Adobe_OpacityMaskFilter_00000011747488967857640920000000323070844878156179_" filterUnits="userSpaceOnUse" x="344.12515" y="0" width="12.51422" height="68.06503">
						<feColorMatrix  type="matrix" values="1 0 0 0 0  0 1 0 0 0  0 0 1 0 0  0 0 0 1 0"/>
					</filter>
				</defs>
				
					<mask maskUnits="userSpaceOnUse" x="344.12515" y="0" width="12.51422" height="68.06503" id="mask-2_00000094593892873592113350000015848640899530047112_">
					<g style="filter:url(#Adobe_OpacityMaskFilter_00000011747488967857640920000000323070844878156179_);">
						<polygon id="path-1_00000164509540195702146080000011674852216071979949_" class="st2" points="0,69 494,69 494,0 0,0 						
							"/>
					</g>
				</mask>
				<path id="Fill-11" class="st11" d="M344.12515,68.06503h12.51422V19.20458h-12.51422V68.06503z M344.12515,12.40184h12.51422V0
					h-12.51422V12.40184z"/>
				<defs>
					
						<filter id="Adobe_OpacityMaskFilter_00000000211909218947398690000010016789331370848150_" filterUnits="userSpaceOnUse" x="424.23129" y="18.37009" width="45.46765" height="49.6987">
						<feColorMatrix  type="matrix" values="1 0 0 0 0  0 1 0 0 0  0 0 1 0 0  0 0 0 1 0"/>
					</filter>
				</defs>
				
					<mask maskUnits="userSpaceOnUse" x="424.23129" y="18.37009" width="45.46765" height="49.6987" id="mask-2_00000067203011714810803130000013073441052240851847_">
					<g style="filter:url(#Adobe_OpacityMaskFilter_00000000211909218947398690000010016789331370848150_);">
						<polygon id="path-1_00000143590011634383518770000008556314675551263382_" class="st2" points="0,69 494,69 494,0 0,0 						
							"/>
					</g>
				</mask>
				<path id="Fill-13" class="st13" d="M469.69894,68.06879h-12.50885V40.65363c0-3.91722-0.68866-6.77588-2.05524-8.57597
					c-1.37192-1.80547-3.26575-2.7082-5.69757-2.7082c-1.2428,0-2.51791,0.25255-3.82529,0.75228
					c-1.30737,0.49435-2.53943,1.1929-3.69077,2.09563c-1.15137,0.90273-2.18973,1.97204-3.12589,3.2133
					c-0.93076,1.24663-1.61942,2.61148-2.04984,4.10529v28.53283h-12.51422V19.20834h11.29831v9.04346
					c1.80237-3.10583,4.41711-5.52924,7.83887-7.27023c3.42715-1.74099,7.28473-2.61148,11.57809-2.61148
					c3.05054,0,5.54156,0.55883,7.46765,1.6765c1.93149,1.11767,3.42715,2.57924,4.48166,4.3847
					c1.05991,1.80009,1.7916,3.85274,2.1951,6.15256c0.40353,2.29982,0.60797,4.63188,0.60797,6.99618V68.06879z"/>
				<defs>
					
						<filter id="Adobe_OpacityMaskFilter_00000183227709802839999100000006605321685667176070_" filterUnits="userSpaceOnUse" x="475.28839" y="50.14899" width="18.71216" height="18.68873">
						<feColorMatrix  type="matrix" values="1 0 0 0 0  0 1 0 0 0  0 0 1 0 0  0 0 0 1 0"/>
					</filter>
				</defs>
				
					<mask maskUnits="userSpaceOnUse" x="475.28839" y="50.14899" width="18.71216" height="18.68873" id="mask-2_00000180363106562263151200000015218022873853774243_">
					<g style="filter:url(#Adobe_OpacityMaskFilter_00000183227709802839999100000006605321685667176070_);">
						<polygon id="path-1_00000099650914431062972780000005909239859629078670_" class="st2" points="0,69 494,69 494,0 0,0 						
							"/>
					</g>
				</mask>
				<path id="Fill-14" class="st15" d="M494.00055,59.49336c0,5.15847-4.19116,9.34436-9.35608,9.34436
					c-5.16495,0-9.35608-4.18589-9.35608-9.34436s4.19113-9.34437,9.35608-9.34437
					C489.80939,50.14899,494.00055,54.33488,494.00055,59.49336"/>
				<g>
					<defs>
						
							<filter id="Adobe_OpacityMaskFilter_00000132792856311353500110000008645243589341347759_" filterUnits="userSpaceOnUse" x="364.76019" y="17.43273" width="51.25668" height="50.63367">
							<feColorMatrix  type="matrix" values="1 0 0 0 0  0 1 0 0 0  0 0 1 0 0  0 0 0 1 0"/>
						</filter>
					</defs>
					
						<mask maskUnits="userSpaceOnUse" x="364.76019" y="17.43273" width="51.25668" height="50.63367" id="mask-2_00000083074550877366884610000001727996414030544026_">
						<g style="filter:url(#Adobe_OpacityMaskFilter_00000132792856311353500110000008645243589341347759_);">
							<polygon id="path-1_00000114758789154214111400000006481575907752083080_" class="st2" points="0,68.06425 494,68.06425 
								494,-0.93574 0,-0.93574 							"/>
						</g>
					</mask>
					<path id="Fill-12" class="st17" d="M377.64566,42.79524c0,2.17623,0.32819,4.14827,0.97919,5.9215
						c0.65097,1.77323,1.55484,3.31002,2.70621,4.61576c1.15134,1.30574,2.50714,2.31594,4.06201,3.03061
						s3.23886,1.07468,5.0412,1.07468s3.48633-0.36002,5.0412-1.07468s2.91068-1.72486,4.06201-3.03061
						c1.15137-1.30574,2.05521-2.85865,2.70621-4.66412c0.6564-1.80009,0.97919-3.78825,0.97919-5.96449
						c0-2.11175-0.32278-4.07304-0.97919-5.87314c-0.651-1.80547-1.55484-3.35838-2.70621-4.66412
						c-1.15134-1.30574-2.50714-2.31594-4.06201-3.03061s-3.23886-1.07468-5.0412-1.07468s-3.48633,0.37614-5.0412,1.12304
						c-1.55487,0.74153-2.91068,1.76785-4.06201,3.07359c-1.15137,1.30574-2.05524,2.85866-2.70621,4.66412
						C377.97385,38.72757,377.64566,40.68349,377.64566,42.79524 M390.43427,68.06641c-3.98132,0-7.55911-0.6878-10.73877-2.05264
						c-3.16891-1.36485-5.86438-3.21868-8.07562-5.54536c-2.20584-2.33744-3.90598-5.02414-5.08423-8.06549
						c-1.18365-3.04673-1.77545-6.24928-1.77545-9.60766c0-3.41749,0.5918-6.65229,1.77545-9.69901
						c1.17825-3.04135,2.87839-5.73343,5.08423-8.06549c2.21124-2.32669,4.90671-4.17514,8.07562-5.54536
						c3.17966-1.36485,6.75745-2.05264,10.73877-2.05264s7.54834,0.6878,10.69037,2.05264
						c3.142,1.37022,5.82132,3.21868,8.02716,5.54536c2.21124,2.33206,3.91138,5.02414,5.08963,8.06549
						c1.18362,3.04673,1.77545,6.28152,1.77545,9.69901c0,3.35838-0.59183,6.56094-1.77545,9.60766
						c-1.17825,3.04135-2.86224,5.72806-5.0412,8.06549c-2.17896,2.32669-4.85291,4.18051-8.02719,5.54536
						C397.99875,67.37861,394.41559,68.06641,390.43427,68.06641"/>
					<defs>
						
							<filter id="Adobe_OpacityMaskFilter_00000063612328479096117850000000942506541189717660_" filterUnits="userSpaceOnUse" x="361.83908" y="13.27401" width="55.79584" height="55.72599">
							<feColorMatrix  type="matrix" values="1 0 0 0 0  0 1 0 0 0  0 0 1 0 0  0 0 0 1 0"/>
						</filter>
					</defs>
					
						<mask maskUnits="userSpaceOnUse" x="361.83908" y="13.27401" width="55.79584" height="55.72599" id="mask-2_00000023258499532680353770000005822250591306528919_">
						<g style="filter:url(#Adobe_OpacityMaskFilter_00000063612328479096117850000000942506541189717660_);">
							<polygon id="path-1_00000167380948381318914870000009066570956562335417_" class="st2" points="-15.9888,69.16894 
								498.27734,69.16894 498.27734,-2.66176 -15.9888,-2.66176 							"/>
						</g>
					</mask>
					<path id="Fill-15" class="st19" d="M417.63492,41.137c0,15.3887-12.48993,27.863-27.89792,27.863
						c-15.40802,0-27.89792-12.4743-27.89792-27.863s12.4899-27.86299,27.89792-27.86299
						C405.14499,13.27401,417.63492,25.74831,417.63492,41.137"/>
					<defs>
						
							<filter id="Adobe_OpacityMaskFilter_00000032608204270554434590000011073112999064043150_" filterUnits="userSpaceOnUse" x="366.44525" y="17.87013" width="46.58673" height="46.53376">
							<feColorMatrix  type="matrix" values="1 0 0 0 0  0 1 0 0 0  0 0 1 0 0  0 0 0 1 0"/>
						</filter>
					</defs>
					
						<mask maskUnits="userSpaceOnUse" x="366.44525" y="17.87013" width="46.58673" height="46.53376" id="mask-2_00000089536585973237929740000012437253482164134586_">
						<g style="filter:url(#Adobe_OpacityMaskFilter_00000032608204270554434590000011073112999064043150_);">
							<polygon id="path-1_00000157989049532268553160000002229341639549090211_" class="st2" points="0,68.06425 494,68.06425 
								494,-0.93574 0,-0.93574 							"/>
						</g>
					</mask>
					<path id="Fill-16" class="st21" d="M413.03198,41.137c0,12.84783-10.42676,23.26688-23.29605,23.26688
						c-12.86395,0-23.29068-10.41905-23.29068-23.26688s10.42673-23.26688,23.29068-23.26688
						C402.60522,17.87013,413.03198,28.28918,413.03198,41.137"/>
					<defs>
						
							<filter id="Adobe_OpacityMaskFilter_00000018227587919085453840000016877181051630954895_" filterUnits="userSpaceOnUse" x="370.79672" y="22.22259" width="37.88162" height="37.82883">
							<feColorMatrix  type="matrix" values="1 0 0 0 0  0 1 0 0 0  0 0 1 0 0  0 0 0 1 0"/>
						</filter>
					</defs>
					
						<mask maskUnits="userSpaceOnUse" x="370.79672" y="22.22259" width="37.88162" height="37.82883" id="mask-2_00000119828462230397140420000015217121498284634038_">
						<g style="filter:url(#Adobe_OpacityMaskFilter_00000018227587919085453840000016877181051630954895_);">
							<polygon id="path-1_00000030449129241699981100000002934387723495407798_" class="st2" points="0,68.06425 494,68.06425 
								494,-0.93574 0,-0.93574 							"/>
						</g>
					</mask>
					<path id="Fill-17" class="st23" d="M408.67834,41.137c0,10.44592-8.4791,18.91442-18.93811,18.91442
						c-10.46442,0-18.94351-8.4685-18.94351-18.91442s8.4791-18.91441,18.94351-18.91441
						C400.19925,22.22259,408.67834,30.69109,408.67834,41.137"/>
					<defs>
						
							<filter id="Adobe_OpacityMaskFilter_00000090974212092643530820000017654182631736062139_" filterUnits="userSpaceOnUse" x="374.45251" y="25.87114" width="30.57004" height="30.53173">
							<feColorMatrix  type="matrix" values="1 0 0 0 0  0 1 0 0 0  0 0 1 0 0  0 0 0 1 0"/>
						</filter>
					</defs>
					
						<mask maskUnits="userSpaceOnUse" x="374.45251" y="25.87114" width="30.57004" height="30.53173" id="mask-2_00000034806164638178892020000005937692434582053007_">
						<g style="filter:url(#Adobe_OpacityMaskFilter_00000090974212092643530820000017654182631736062139_);">
							<polygon id="path-1_00000148661964197232638290000006306726844999230142_" class="st2" points="0,68.06425 494,68.06425 
								494,-0.93574 0,-0.93574 							"/>
						</g>
					</mask>
					<path id="Fill-18" class="st25" d="M405.02255,41.137c0,8.43089-6.84357,15.26587-15.285,15.26587
						c-8.44147,0-15.28503-6.83498-15.28503-15.26587s6.84357-15.26587,15.28503-15.26587
						C398.17899,25.87114,405.02255,32.70612,405.02255,41.137"/>
					<defs>
						
							<filter id="Adobe_OpacityMaskFilter_00000070808207055517678260000004460206486737657275_" filterUnits="userSpaceOnUse" x="378.92828" y="30.34182" width="21.61743" height="21.59037">
							<feColorMatrix  type="matrix" values="1 0 0 0 0  0 1 0 0 0  0 0 1 0 0  0 0 0 1 0"/>
						</filter>
					</defs>
					
						<mask maskUnits="userSpaceOnUse" x="378.92828" y="30.34182" width="21.61743" height="21.59037" id="mask-2_00000176040043861046551710000017439333277417531556_">
						<g style="filter:url(#Adobe_OpacityMaskFilter_00000070808207055517678260000004460206486737657275_);">
							<polygon id="path-1_00000116223899494919388970000012009701141527758766_" class="st2" points="0,68.06425 494,68.06425 
								494,-0.93574 0,-0.93574 							"/>
						</g>
					</mask>
					<path id="Fill-19" class="st27" d="M400.54572,41.137c0,5.95912-4.83676,10.79519-10.80872,10.79519
						c-5.96658,0-10.80872-4.83607-10.80872-10.79519s4.84213-10.79519,10.80872-10.79519
						C395.70895,30.34182,400.54572,35.17789,400.54572,41.137"/>
				</g>
			</g>
		</g>
	</g>
</g>
</svg>
